<svg width="60" height="60" viewBox="0 0 60 60" fill="none" xmlns="http://www.w3.org/2000/svg">
<rect width="60" height="60" rx="16" fill="#C06DBB"/>
<g clip-path="url(#clip0_16_134)">
<path d="M30 50.0002C31.3261 50.0002 32.5979 49.4734 33.5355 48.5358C34.4732 47.5981 35 46.3263 35 45.0002H25C25 46.3263 25.5268 47.5981 26.4645 48.5358C27.4021 49.4734 28.6739 50.0002 30 50.0002ZM32.4875 12.7477C32.5224 12.4001 32.484 12.049 32.3749 11.7172C32.2658 11.3853 32.0883 11.08 31.8539 10.8209C31.6196 10.5618 31.3335 10.3547 31.0142 10.213C30.6948 10.0713 30.3494 9.99805 30 9.99805C29.6506 9.99805 29.3052 10.0713 28.9858 10.213C28.6665 10.3547 28.3804 10.5618 28.1461 10.8209C27.9117 11.08 27.7342 11.3853 27.6251 11.7172C27.516 12.049 27.4776 12.4001 27.5125 12.7477C24.6868 13.3225 22.1466 14.8561 20.3219 17.089C18.4973 19.3218 17.5004 22.1167 17.5 25.0002C17.5 27.7452 16.25 40.0002 12.5 42.5002H47.5C43.75 40.0002 42.5 27.7452 42.5 25.0002C42.5 18.9502 38.2 13.9002 32.4875 12.7477Z" fill="white"/>
</g>
<defs>
<clipPath id="clip0_16_134">
<rect width="40" height="40" fill="white" transform="translate(10 10)"/>
</clipPath>
</defs>
</svg>
