<svg width="60" height="60" viewBox="0 0 61 60" fill="none" xmlns="http://www.w3.org/2000/svg">
<rect width="60" height="60" rx="16" fill="#0392D1"/>
<path d="M44.8214 28.0223H35V20.2061H31.7857C32.7806 18.9949 33.3152 17.5209 33.3084 16.0076C33.3084 13.7572 32.1406 11.6426 30.2608 10.4893L29.4633 10L28.6659 10.4893C26.7857 11.6428 25.6183 13.7572 25.6183 16.0076C25.6116 17.5209 26.1464 18.9949 27.1414 20.206H23.5714V28.0223H15.1786C13.8056 28.0237 12.4893 28.5217 11.5185 29.407C10.5477 30.2922 10.0016 31.4926 10 32.7446V47.3946C10.0009 48.0854 10.3021 48.7476 10.8378 49.236C11.3734 49.7245 12.0996 49.9992 12.8571 50H47.1429C47.9004 49.9992 48.6266 49.7245 49.1622 49.236C49.6979 48.7476 49.9991 48.0854 50 47.3946V32.7446C49.9984 31.4926 49.4523 30.2923 48.4815 29.407C47.5107 28.5217 46.1944 28.0238 44.8214 28.0223ZM29.4633 13.3242C30.0874 14.0312 30.4512 14.9905 30.4512 16.0077C30.4512 17.0248 30.0874 17.9842 29.4633 18.6911C28.8393 17.9842 28.4754 17.0248 28.4754 16.0076C28.4754 14.9903 28.8393 14.0312 29.4633 13.3242ZM26.4286 22.8115H32.1429V28.0223H26.4286V22.8115ZM12.8571 32.7446C12.8579 32.1834 13.1027 31.6453 13.5379 31.2485C13.9731 30.8516 14.5631 30.6284 15.1786 30.6277H44.8214C45.4369 30.6284 46.0269 30.8516 46.4621 31.2485C46.8973 31.6453 47.1422 32.1834 47.1429 32.7446V35.3156L45.2143 36.0916C44.8371 36.2429 44.4295 36.3211 44.0175 36.3211C43.6054 36.3211 43.1978 36.2429 42.8206 36.0916L39.4643 34.7411L36.1071 36.0915C35.73 36.2429 35.3224 36.321 34.9103 36.321C34.4982 36.321 34.0906 36.2429 33.7134 36.0915L30.3571 34.741L27 36.0914C26.6228 36.2428 26.2152 36.321 25.8031 36.321C25.391 36.321 24.9834 36.2428 24.6062 36.0914L21.25 34.7411L17.8935 36.0914C17.5163 36.2428 17.1087 36.321 16.6966 36.321C16.2845 36.321 15.8769 36.2428 15.4997 36.0914L12.8571 35.0284V32.7446ZM47.1429 47.3946H12.8571V37.8761L14.3463 38.4752C15.0869 38.7724 15.8872 38.9259 16.6964 38.9259C17.5056 38.9259 18.306 38.7724 19.0466 38.4752L21.25 37.5887L23.4535 38.4752C24.1941 38.7724 24.9944 38.9259 25.8036 38.9259C26.6128 38.9259 27.4131 38.7724 28.1538 38.4752L30.3571 37.5887L32.5604 38.4752C33.3011 38.7724 34.1014 38.9259 34.9105 38.9259C35.7197 38.9259 36.52 38.7724 37.2606 38.4752L39.4643 37.5887L41.6677 38.4753C42.4083 38.7725 43.2086 38.9259 44.0177 38.9259C44.8269 38.9259 45.6272 38.7725 46.3678 38.4753L47.1439 38.1631L47.1446 47.3946H47.1429Z" fill="white"/>
</svg>
