<svg width="60" height="60" viewBox="0 0 60 60" fill="none" xmlns="http://www.w3.org/2000/svg">
<rect width="60" height="60" rx="16" fill="#FE624B"/>
<path d="M28.334 38.3333V21.6667H16.6673V38.3333H28.334ZM28.334 15C29.218 15 30.0659 15.3512 30.691 15.9763C31.3161 16.6014 31.6673 17.4493 31.6673 18.3333V41.6667C31.6673 42.5507 31.3161 43.3986 30.691 44.0237C30.0659 44.6488 29.218 45 28.334 45H16.6673C15.7833 45 14.9354 44.6488 14.3103 44.0237C13.6852 43.3986 13.334 42.5507 13.334 41.6667V18.3333C13.334 17.4493 13.6852 16.6014 14.3103 15.9763C14.9354 15.3512 15.7833 15 16.6673 15H28.334ZM37.5007 15H45.834C46.497 15 47.1329 15.2634 47.6017 15.7322C48.0706 16.2011 48.334 16.837 48.334 17.5V22.5C48.334 23.163 48.0706 23.7989 47.6017 24.2678C47.1329 24.7366 46.497 25 45.834 25H40.0007L35.0007 30V17.5C35.0007 16.837 35.264 16.2011 35.7329 15.7322C36.2017 15.2634 36.8376 15 37.5007 15Z" fill="white"/>
<path d="M22.6495 41.3155C22.3929 41.4132 22.4225 41.4403 22.4084 41.6943C22.4073 41.7134 22.3435 41.7315 22.3624 41.7288C22.4343 41.7185 22.4273 41.5773 22.4447 41.5221C22.4695 41.4437 22.5327 41.3615 22.5442 41.281C22.5463 41.2666 22.5405 41.1755 22.55 41.2064C22.5836 41.3157 22.6808 41.5849 22.5997 41.702C22.5481 41.7765 22.3882 41.9077 22.2974 41.901C22.155 41.8905 22.1241 41.5613 22.1347 41.4552C22.1513 41.2896 22.336 41.3026 22.4084 41.2121C22.4602 41.1473 22.6561 41.3155 22.7528 41.3155" stroke="#FE624B"/>
<path d="M22.4961 41.3769C22.511 41.463 22.5116 41.519 22.607 41.5025C22.6373 41.4972 22.6565 41.4858 22.6909 41.4841C22.7096 41.4831 22.7438 41.452 22.7639 41.4446C22.805 41.4293 22.8379 41.39 22.8759 41.3672" stroke="#FE624B"/>
<path d="M22.5631 41.3775C22.4481 41.3136 22.3574 41.2091 22.2211 41.1849C22.1787 41.1774 22.114 41.2033 22.0912 41.2422C22.0671 41.2837 22.0664 41.3198 22.0664 41.3678C22.0664 41.4285 22.0469 41.4832 22.0469 41.5431C22.0469 41.6126 22.0926 41.6703 22.1253 41.7292C22.1463 41.7669 22.1829 41.8143 22.2135 41.845C22.2627 41.8942 22.3297 41.906 22.391 41.9359C22.5028 41.9905 22.6482 41.9272 22.6853 41.8082C22.7035 41.7502 22.7264 41.6714 22.7286 41.6113C22.7308 41.5536 22.7178 41.4868 22.7308 41.4305C22.735 41.4121 22.7728 41.3389 22.7384 41.3288C22.719 41.3231 22.7152 41.2969 22.7091 41.2801C22.698 41.2492 22.6905 41.2542 22.6615 41.2466C22.5804 41.2251 22.4974 41.1583 22.417 41.2119" stroke="#FE624B" stroke-linecap="round"/>
</svg>
