<svg width="61" height="60" viewBox="0 0 61 60" fill="none" xmlns="http://www.w3.org/2000/svg">
<rect width="60" height="60" rx="16" fill="#01AE81"/>
<path d="M45.0833 24.2857H33.4167V12.8571H15.9167V47.1429H45.0833V24.2857ZM43.8758 21.4286L36.3333 14.04V21.4286H43.8758ZM14.4583 10H36.3333L48 21.4286V48.5714C48 48.9503 47.8464 49.3137 47.5729 49.5816C47.2994 49.8495 46.9284 50 46.5417 50H14.4583C14.0716 50 13.7006 49.8495 13.4271 49.5816C13.1536 49.3137 13 48.9503 13 48.5714V11.4286C13 11.0497 13.1536 10.6863 13.4271 10.4184C13.7006 10.1505 14.0716 10 14.4583 10ZM21.75 30H39.25V32.8571H21.75V30ZM21.75 21.4286H29.0417V24.2857H21.75V21.4286ZM21.75 38.5714H39.25V41.4286H21.75V38.5714Z" fill="white"/>
</svg>
