<svg width="60" height="60" viewBox="0 0 60 60" fill="none" xmlns="http://www.w3.org/2000/svg">
<rect width="60" height="60" rx="16" fill="#FFCA50"/>
<path d="M30 30C31.9891 30 33.8968 29.2098 35.3033 27.8033C36.7098 26.3968 37.5 24.4891 37.5 22.5C37.5 20.5109 36.7098 18.6032 35.3033 17.1967C33.8968 15.7902 31.9891 15 30 15C28.0109 15 26.1032 15.7902 24.6967 17.1967C23.2902 18.6032 22.5 20.5109 22.5 22.5C22.5 24.4891 23.2902 26.3968 24.6967 27.8033C26.1032 29.2098 28.0109 30 30 30ZM35 22.5C35 23.8261 34.4732 25.0979 33.5355 26.0355C32.5979 26.9732 31.3261 27.5 30 27.5C28.6739 27.5 27.4021 26.9732 26.4645 26.0355C25.5268 25.0979 25 23.8261 25 22.5C25 21.1739 25.5268 19.9021 26.4645 18.9645C27.4021 18.0268 28.6739 17.5 30 17.5C31.3261 17.5 32.5979 18.0268 33.5355 18.9645C34.4732 19.9021 35 21.1739 35 22.5ZM45 42.5C45 45 42.5 45 42.5 45H17.5C17.5 45 15 45 15 42.5C15 40 17.5 32.5 30 32.5C42.5 32.5 45 40 45 42.5ZM42.5 42.49C42.4975 41.875 42.115 40.025 40.42 38.33C38.79 36.7 35.7225 35 30 35C24.275 35 21.21 36.7 19.58 38.33C17.885 40.025 17.505 41.875 17.5 42.49H42.5Z" fill="white"/>
<circle cx="42" cy="42" r="6" fill="white"/>
<circle cx="42" cy="42" r="3" fill="#FFCA50"/>
</svg>
