<svg width="60" height="60" viewBox="0 0 60 60" fill="none" xmlns="http://www.w3.org/2000/svg">
<rect width="60" height="60" rx="16" fill="#FF9336"/>
<path d="M36.4375 22.5631C36.4377 21.3887 36.7531 20.236 37.3507 19.225C37.9483 18.2141 38.8062 17.382 39.8349 16.8156C40.8637 16.2493 42.0256 15.9693 43.1994 16.005C44.3732 16.0407 45.5159 16.3907 46.5084 17.0185C47.5008 17.6463 48.3066 18.5289 48.8417 19.5743C49.3768 20.6197 49.6215 21.7895 49.5505 22.9617C49.4794 24.1339 49.0951 25.2655 48.4376 26.2386C47.7801 27.2116 46.8735 27.9904 45.8125 28.4937V42.2506L43 45.0631L40.1875 42.2506L42.0625 40.3756L40.1875 38.5006L42.0625 36.6256L40.1875 34.7506L42.0625 32.8756L40.1875 31.0006V28.4937C39.0653 27.9614 38.1171 27.1215 37.4533 26.0717C36.7895 25.0219 36.4372 23.8052 36.4375 22.5631ZM41.125 20.6881C41.125 21.1854 41.3225 21.6623 41.6742 22.0139C42.0258 22.3656 42.5027 22.5631 43 22.5631C43.4973 22.5631 43.9742 22.3656 44.3258 22.0139C44.6775 21.6623 44.875 21.1854 44.875 20.6881C44.875 20.1908 44.6775 19.7139 44.3258 19.3623C43.9742 19.0106 43.4973 18.8131 43 18.8131C42.5027 18.8131 42.0258 19.0106 41.6742 19.3623C41.3225 19.7139 41.125 20.1908 41.125 20.6881Z" fill="white"/>
<path d="M9.5 45C9.5 45 7 45 7 42.5C7 40 9.5 32.5 22 32.5C34.5 32.5 37 40 37 42.5C37 45 34.5 45 34.5 45H9.5ZM22 30C23.9891 30 25.8968 29.2098 27.3033 27.8033C28.7098 26.3968 29.5 24.4891 29.5 22.5C29.5 20.5109 28.7098 18.6032 27.3033 17.1967C25.8968 15.7902 23.9891 15 22 15C20.0109 15 18.1032 15.7902 16.6967 17.1967C15.2902 18.6032 14.5 20.5109 14.5 22.5C14.5 24.4891 15.2902 26.3968 16.6967 27.8033C18.1032 29.2098 20.0109 30 22 30Z" fill="white"/>
</svg>
