<svg width="60" height="60" viewBox="0 0 60 60" fill="none" xmlns="http://www.w3.org/2000/svg">
<rect width="60" height="60" rx="16" fill="#01A8A0"/>
<path d="M42.0007 14.334C38.3247 14.334 35.334 17.3247 35.334 21.0007C35.334 24.6767 38.3247 27.6673 42.0007 27.6673C45.6767 27.6673 48.6673 24.6767 48.6673 21.0007C48.6673 17.3247 45.6767 14.334 42.0007 14.334ZM42.0007 26.334C39.06 26.334 36.6673 23.9413 36.6673 21.0007C36.6673 18.06 39.06 15.6673 42.0007 15.6673C44.9413 15.6673 47.334 18.06 47.334 21.0007C47.334 23.9413 44.9413 26.334 42.0007 26.334Z" fill="white"/>
<path d="M42.6673 17.666H41.334V21.2753L43.5293 23.4707L44.472 22.528L42.6673 20.7233V17.666Z" fill="white"/>
<path d="M30.0013 30.0007C34.6037 30.0007 38.3346 26.2697 38.3346 21.6673C38.3346 17.0649 34.6037 13.334 30.0013 13.334C25.3989 13.334 21.668 17.0649 21.668 21.6673C21.668 26.2697 25.3989 30.0007 30.0013 30.0007Z" stroke="white" stroke-width="2"/>
<path d="M38.3341 33.334H38.9208C40.1392 33.3343 41.3156 33.7796 42.229 34.5861C43.1423 35.3926 43.7297 36.5049 43.8808 37.714L44.5324 42.9207C44.591 43.3897 44.5492 43.8659 44.4097 44.3175C44.2703 44.7692 44.0363 45.186 43.7235 45.5403C43.4106 45.8946 43.0259 46.1784 42.595 46.3727C42.1641 46.567 41.6968 46.6674 41.2241 46.6673H18.7774C18.3047 46.6674 17.8374 46.567 17.4065 46.3727C16.9756 46.1784 16.5909 45.8946 16.278 45.5403C15.9652 45.186 15.7312 44.7692 15.5918 44.3175C15.4523 43.8659 15.4105 43.3897 15.4691 42.9207L16.1191 37.714C16.2702 36.5044 16.8581 35.3916 17.7721 34.585C18.6862 33.7784 19.8634 33.3335 21.0824 33.334H21.6674" stroke="white" stroke-width="2" stroke-linecap="round" stroke-linejoin="round"/>
<path d="M25.9967 19.0904C26.6271 19.591 26.537 20.281 26.743 20.9679C26.8261 21.2449 26.9413 21.4282 26.9413 21.7259C26.9413 21.9428 27.0165 22.3154 26.8597 22.4723C26.526 22.8059 26.3163 21.8907 26.3116 21.6968C26.3009 21.2585 26.2849 20.8049 26.3116 20.3673C26.3478 19.7732 26.9232 19.3549 27.2445 18.898C27.3601 18.7335 27.4778 18.5283 27.5593 18.344C27.617 18.2137 27.6315 18.0293 27.7343 17.9242C28.0303 17.6213 28.4486 17.4428 28.813 17.242C29.14 17.0618 29.6278 16.8306 29.9966 16.7814C30.0997 16.7676 30.1994 16.6879 30.2998 16.6531C30.4508 16.6009 30.6387 16.61 30.778 16.5482C31.1738 16.3722 31.7377 16.4665 32.189 16.4665C32.7993 16.4665 33.1073 16.6989 33.4485 17.2012C33.572 17.383 33.7378 17.6538 33.8916 17.8076C34.0091 17.9251 34.1771 18.0056 34.2998 18.1283C34.5345 18.3631 34.7283 18.6676 34.9936 18.8688C35.4867 19.2429 35.3901 19.8683 35.3901 20.449C35.3901 20.6953 35.4951 20.9114 35.4951 21.1632C35.4951 21.5189 35.4951 21.8746 35.4951 22.2303C35.4951 22.5786 35.4677 22.9602 35.2356 23.1924C35.0851 23.3429 35.0133 23.6946 34.9178 23.895C34.7035 24.3451 34.7604 24.8244 34.7604 25.3119C34.7604 25.6587 34.6541 25.793 34.3143 25.9591C33.9693 26.1278 33.5214 26.3095 33.1365 26.3352C32.8744 26.3526 32.494 26.4514 32.2619 26.5742C31.89 26.7711 31.3231 26.8313 31.0141 27.1165C30.8585 27.2601 30.441 27.3586 30.2415 27.376C29.6018 27.4316 28.9382 27.3818 28.2969 27.3818C27.9199 27.3818 27.5428 27.3818 27.1658 27.3818C26.6876 27.3818 26.4203 26.5608 26.2066 26.2273C25.8584 25.684 25.4036 25.2235 25.0754 24.6646C24.8496 24.2801 24.6738 23.8726 24.4107 23.5101C24.1525 23.1544 23.8694 22.8352 23.6236 22.4664C23.384 22.107 23.2796 21.5459 23.2679 21.1137C23.254 20.6014 23.2679 20.0868 23.2679 19.5743C23.2679 19.2718 23.2371 19.0229 23.4078 18.7639C23.8454 18.1 24.7959 17.7918 25.5011 17.5802C26.153 17.3846 26.7971 17.1725 27.4252 16.9272C28.0605 16.679 28.6424 16.3616 29.3319 16.3616C29.8812 16.3616 30.4329 16.3773 30.982 16.3616C31.3929 16.3498 31.067 15.4908 31.0054 15.312C30.8572 14.8822 30.5194 14.9596 30.1511 15.1546C29.7833 15.3493 29.6646 15.4849 29.5885 15.898C29.455 16.6228 29.4077 17.2819 29.4077 18.0204C29.4077 19.3295 29.4077 20.6385 29.4077 21.9475C29.4077 22.8422 29.1165 23.533 28.364 24.0437C27.8051 24.4229 27.7999 23.268 27.7868 22.9679C27.7466 22.0544 27.9939 21.1028 28.3611 20.2711C28.499 19.9589 28.6621 19.6623 28.8276 19.3644C28.9076 19.2203 29.352 19.3003 29.4806 19.3003C30.2926 19.3003 31.114 19.2771 31.9179 19.4111C32.0767 19.4375 32.1294 19.5816 32.1686 19.7172C32.2683 20.0624 32.4201 20.3958 32.498 20.7463C32.5981 21.1965 32.6613 21.6255 32.6613 22.0845C32.6613 22.3757 32.7678 22.8698 32.5243 23.0816C32.2492 23.3208 31.9045 23.5141 31.5564 23.6268C31.1045 23.7729 30.6576 23.9278 30.1978 24.0495C29.7 24.1812 29.2943 24.2052 28.8829 24.548" stroke="white" stroke-width="4" stroke-linecap="round"/>
<path d="M29.0007 31C28.4428 37.9466 27.9956 41.0257 28.004 45" stroke="white" stroke-width="2"/>
<path d="M28.8293 34.6758C28.8293 35.1552 28.8741 35.5339 28.6719 35.9586C28.5373 36.2412 28.4762 36.5786 28.4153 36.8827C28.3829 37.0448 28.4172 37.2284 28.4095 37.3929C28.4 37.5972 28.3046 37.7851 28.3046 38.011C28.3046 38.2987 28.3046 38.5863 28.3046 38.874C28.3046 39.1766 28.0952 39.4299 27.9372 39.6844C27.6336 40.1736 27.4649 40.5877 27.4649 41.1596C27.4649 41.6708 27.4649 42.182 27.4649 42.6931C27.4649 43.0582 27.4258 43.3763 27.5932 43.7019C27.6976 43.9048 28.1918 44.4794 28.0655 44.696C27.9981 44.8116 27.8118 44.7515 27.7565 44.8622C27.6717 45.0318 27.9047 45.0826 27.9868 44.9759C28.2894 44.5825 28.1996 43.828 28.1996 43.3579C28.1996 42.8467 28.1996 42.3355 28.1996 41.8244C28.1996 41.2409 27.9897 40.6626 27.9897 40.0839C27.9897 39.8142 27.8847 39.5689 27.8847 39.2909C27.8847 39.0207 27.8847 38.7505 27.8847 38.4804C27.8847 38.0459 27.8133 37.5552 27.8964 37.1306C27.9986 36.6084 28.0841 36.0876 28.1996 35.5679" stroke="white" stroke-linecap="round"/>
<path d="M21.1465 33.2347C21.5396 33.2446 21.928 33.2799 22.3221 33.2799C22.5213 33.2799 22.7206 33.2799 22.9199 33.2799C23.4424 33.2799 23.9649 33.2799 24.4873 33.2799C25.1815 33.2799 25.8756 33.2799 26.5697 33.2799C27.25 33.2799 27.9609 33.3303 28.637 33.2472C28.9576 33.2079 29.2915 33.2347 29.6142 33.2347C30.1161 33.2347 30.6181 33.2347 31.1201 33.2347C31.9365 33.2347 32.7528 33.2347 33.5692 33.2347C34.4103 33.2347 35.2514 33.2347 36.0924 33.2347C36.4826 33.2347 36.8728 33.2347 37.263 33.2347C37.4882 33.2347 37.7135 33.2347 37.9387 33.2347C38.0853 33.2347 38.2184 33.2482 38.3507 33.1895" stroke="white" stroke-linecap="round"/>
<path d="M38.4879 33.9121C38.2109 34.0551 37.8506 34.0025 37.5472 34.0025C37.1549 34.0025 36.7626 34.0025 36.3704 34.0025C35.512 34.0025 34.6525 34.0155 33.7944 33.9988C32.853 33.9804 31.9155 33.9347 30.9735 33.9347C30.4493 33.9347 29.9252 33.9347 29.401 33.9347C28.8438 33.9347 28.2866 33.9347 27.7293 33.9347C25.6009 33.9347 23.4802 33.9799 21.3516 33.9799" stroke="white" stroke-linecap="round"/>
<path d="M21.3848 33.2456C21.7857 33.1173 22.2392 33.0695 22.6592 33.0389C22.6823 33.0372 22.8651 32.9885 22.7587 32.9739C22.4599 32.9326 22.1524 32.9624 21.8517 32.9165C21.8231 32.9121 21.5862 32.8331 21.6029 32.8323C21.8698 32.8186 22.1414 32.8323 22.4085 32.8323C23.1516 32.8323 23.8947 32.8323 24.6378 32.8323C26.3026 32.8323 27.9673 32.8323 29.6321 32.8323C32.8303 32.8323 36.0285 32.8323 39.2266 32.8323" stroke="white" stroke-linecap="round"/>
<path d="M21.3786 34.4141C21.3786 34.83 21.3786 35.2459 21.3786 35.6619C21.3786 36.0307 21.2736 36.3766 21.2736 36.7522C21.2736 37.2981 21.0173 37.856 20.8655 38.3732C20.629 39.1791 20.6495 40.0547 20.4807 40.8746C20.2795 41.8517 20.2241 42.7913 20.2241 43.7813C20.2241 44.0417 20.2241 44.3021 20.2241 44.5626C20.2241 44.8474 20.1191 45.0961 20.1191 45.3818" stroke="white" stroke-width="3" stroke-linecap="round"/>
<path d="M20.275 35.0432C20.2322 35.257 20.2146 35.4785 20.0651 35.6467C19.9446 35.7823 19.7866 35.8635 19.6715 36.0141C19.4528 36.3 19.1451 36.5269 19.0039 36.8683C18.8924 37.1376 18.8138 37.3794 18.7298 37.6554C18.6687 37.8562 18.6065 38.1387 18.5957 38.3493C18.5891 38.4776 18.6276 38.6112 18.5432 38.7166C18.3572 38.9492 18.5032 39.5925 18.4383 39.8974C18.3757 40.1916 18.4137 40.4803 18.3741 40.7749C18.3266 41.129 18.2808 41.4514 18.2808 41.8128C18.2808 42.597 18.2808 43.3813 18.2808 44.1655C18.2808 44.3928 18.3086 44.377 18.2167 44.1626C18.0673 43.814 17.7862 43.4893 17.5695 43.1772C17.3343 42.8385 17.1449 42.5412 17.2546 42.116C17.3463 41.7608 17.4412 41.5018 17.4412 41.1277C17.4412 40.6389 17.4412 40.15 17.4412 39.6612C17.4412 39.202 17.5443 38.924 17.6744 38.4863C17.7086 38.3716 17.7536 38.1879 17.861 38.1102C17.9436 38.0506 17.9753 38.5627 17.9893 38.6117C18.1585 39.204 18.0709 39.8888 18.0709 40.5038C18.0709 40.8369 18.1676 41.1461 18.1759 41.4746C18.1862 41.8803 18.1759 42.2874 18.1759 42.6933C18.1759 43.0893 18.0709 43.461 18.0709 43.8594C18.0709 44.3269 18.7007 44.2268 19.0097 44.2268C19.3668 44.2268 19.7334 44.2484 20.0884 44.2034C20.7033 44.1255 21.2639 43.8992 21.8493 43.7136C23.7423 43.1138 25.7029 43.4921 27.6451 43.4921C29.617 43.4921 31.5825 43.3346 33.5517 43.3346C34.3815 43.3346 35.219 43.3676 36.0473 43.3113C36.7664 43.2625 37.4784 43.1459 38.1989 43.1247C38.8987 43.1042 39.5775 42.9148 40.2747 42.9148C40.8324 42.9148 41.3806 42.2154 41.8402 41.9148C42.0592 41.7716 42.3927 41.5757 42.4729 41.3055C42.5528 41.0364 42.5254 40.7374 42.5254 40.4601C42.5254 40.1571 42.6151 39.6899 42.4641 39.4163C41.9492 38.483 41.1971 37.8255 40.572 36.9849C40.244 36.5438 39.6739 36.396 39.1639 36.2969C38.6819 36.2031 38.2086 36.1159 37.7208 36.052C36.6683 35.914 35.6308 35.6831 34.5663 35.673C32.0423 35.6489 29.5963 36.1612 27.0912 36.3785C25.4081 36.5245 23.2276 36.3596 21.9105 37.6554C21.7431 37.8202 21.623 38.0075 21.5169 38.2152C21.456 38.3346 21.4313 38.4399 21.4295 38.2327C21.4197 37.131 21.423 36.0283 21.4295 34.9266C21.4324 34.4299 21.5901 34.6479 21.9863 34.7313C23.3567 35.0198 24.796 34.9383 26.1874 34.9383C28.7883 34.9383 31.3767 34.613 33.9832 34.7342C34.7016 34.7676 35.4079 34.8333 36.129 34.8333C36.5743 34.8333 36.9942 34.9221 37.4351 34.9383C37.8611 34.9539 38.232 35.0923 38.6333 35.224C38.88 35.3049 39.1108 35.3086 39.2543 35.5272C39.5104 35.9175 39.8143 36.2323 40.2105 36.4834C40.4643 36.6443 40.7319 36.7814 40.9977 36.9207C41.1266 36.9883 41.1786 36.9995 41.1493 36.8216C41.0312 36.1055 39.919 34.9839 39.1143 35.4572C38.459 35.8427 37.7469 36.7574 37.8082 37.5388C37.8477 38.0415 38.2847 38.2844 38.6304 38.5884C38.9769 38.8931 39.2473 39.274 39.5983 39.5738C40.0384 39.9497 40.3213 40.2785 40.3213 40.8886C40.3213 41.6251 40.9508 41.9032 41.5458 42.1277C41.8549 42.2443 42.1722 42.2139 42.4962 42.2355C42.6658 42.2468 42.5778 42.9148 42.5778 43.0693C42.5778 43.4723 42.5046 43.8005 42.158 44.046C41.5825 44.4536 40.7881 44.5481 40.1056 44.5883C39.1024 44.6473 38.0817 44.5941 37.0765 44.5941C35.9303 44.5941 34.795 44.6991 33.6509 44.6991C32.048 44.6991 30.4593 44.909 28.8579 44.909C27.6801 44.909 26.5023 44.909 25.3245 44.909C24.4422 44.909 23.5854 44.9798 22.7064 45.0197C22.2796 45.0391 21.8567 45.1189 21.4295 45.1189C21.0467 45.1189 20.7287 45.2077 20.5549 44.804C20.057 43.6478 19.8697 42.0968 20.1817 40.8682C20.3582 40.1731 21.8208 40.1821 22.3449 40.1277C23.4786 40.01 24.64 40.0325 25.7793 39.9761C26.8523 39.923 27.9754 39.7241 29.027 39.5096C30.0504 39.3009 31.0699 38.8978 32.1115 38.7924C33.2572 38.6766 34.4335 38.7924 35.5838 38.7633C36.1386 38.7492 36.6916 38.6984 37.2456 38.6671C37.5317 38.6509 37.838 38.6574 38.1173 38.5825C38.4028 38.5059 38.3302 38.2268 38.1406 38.0578C37.7806 37.7367 37.1685 37.7248 36.7179 37.6904C36.2498 37.6547 35.7758 37.6628 35.3068 37.6671C34.7321 37.6723 34.1678 37.772 33.5926 37.772C31.4167 37.772 29.2408 37.772 27.065 37.772C25.7499 37.772 24.3655 37.6518 23.0592 37.8537C22.6223 37.9212 21.606 37.9531 21.3449 38.3785C21.0821 38.8067 21.0854 39.2824 21.0097 39.7604C20.9582 40.0853 20.9157 40.4517 20.9572 40.7807C20.9917 41.054 21.1843 41.219 21.4178 41.3493C22.448 41.9239 23.7588 41.9803 24.9047 42.081C26.2812 42.202 27.7268 42.2852 29.0941 42.0373C29.8749 41.8957 30.6473 41.6988 31.4177 41.5096C32.3286 41.2859 33.29 41.3003 34.2223 41.288C35.0367 41.2773 35.8547 41.1345 36.6654 41.0548C37.3249 40.9899 38.0039 41.0184 38.642 40.8682" stroke="white" stroke-width="3" stroke-linecap="round"/>
<path d="M38.8535 39.1888C39.3672 38.6037 40.0671 38.3345 40.8039 38.1626C41.317 38.0428 41.716 37.7232 42.1596 37.457" stroke="white" stroke-width="3" stroke-linecap="round"/>
<path d="M27.5171 32.7871C27.5171 33.6312 27.4121 34.4565 27.4121 35.3002C27.4121 35.9513 27.4121 36.6024 27.4121 37.2535C27.4121 37.9231 27.5171 38.5668 27.5171 39.2302C27.5171 39.8494 27.543 40.4439 27.6249 41.0581C27.7261 41.8171 27.6696 42.5924 27.8553 43.335C27.9509 43.7178 27.9247 44.1162 28.0418 44.4954C28.1248 44.7637 28.1803 45.1247 28.3188 45.3671C28.4973 45.6795 28.7629 45.9329 28.934 46.2505C28.9973 46.3682 28.9771 46.4826 29.0156 46.609C29.0786 46.8162 29.082 47.0933 29.2488 47.2184" stroke="#01A8A0" stroke-linecap="round"/>
<path d="M29.9309 32.7339C29.9904 34.459 30.4403 36.1741 29.7968 37.83C29.4251 38.7866 29.0913 39.8105 29.0913 40.8416C29.0913 41.7697 29.0913 42.6978 29.0913 43.6258C29.0913 44.1699 29.0987 44.7145 29.0913 45.2585C29.0867 45.5988 28.9864 45.9298 28.9864 46.2788C28.9864 46.4444 28.9657 46.6273 28.9893 46.792C28.9993 46.8622 29.5076 46.1231 29.5519 45.9582C29.8775 44.7458 30.3508 43.5428 30.3508 42.2731C30.3508 39.9995 30.4195 37.7347 30.1438 35.4831C30.0685 34.8688 29.955 34.2668 29.826 33.661C29.7664 33.3811 29.6837 33.1043 29.6394 32.8213C29.6323 32.7761 29.6406 32.3701 29.5607 32.3957C29.1079 32.5406 28.5891 33.1107 28.345 33.5094C28.1825 33.7747 28.1334 34.101 28.1467 34.4073C28.1528 34.5472 28.2023 34.1322 28.2458 33.9992C28.3538 33.6689 28.4618 33.3098 28.6132 32.9963C28.7067 32.8026 28.7204 33.2788 28.724 33.3053C28.7647 33.611 28.8471 33.9143 28.8756 34.2207C28.951 35.0318 28.9864 35.8152 28.9864 36.6347C28.9864 37.6298 28.9864 38.6249 28.9864 39.6201C28.9864 40.3081 28.9864 40.9961 28.9864 41.6842C28.9864 42.0608 28.8814 42.4239 28.8814 42.8037C28.8814 43.1091 28.8552 43.3769 28.7998 43.6783C28.7737 43.8199 28.7764 43.9608 28.7764 44.104C28.7764 44.4519 28.7764 43.4081 28.7764 43.0602C28.7764 42.316 28.7439 41.5622 28.7794 40.8183C28.8036 40.3086 28.8814 39.8142 28.8814 39.2994C28.8814 38.8065 28.9864 38.3233 28.9864 37.8242C28.9864 37.4889 28.9864 37.1536 28.9864 36.8184C28.9864 36.0602 28.9246 35.247 28.6423 34.5414C28.4881 34.1558 27.9521 34.8443 27.8668 35.0108C27.7901 35.1606 27.6862 35.4615 27.6744 35.6318C27.6427 36.0918 27.5769 36.842 27.861 37.2294C28.1838 37.6695 28.0942 38.4318 28.0942 38.9524C28.0942 39.3318 27.9893 39.7049 27.9893 40.0924C27.9893 40.6968 27.9893 41.3013 27.9893 41.9057C27.9893 42.287 27.7358 44.5652 28.482 44.4217C29.1026 44.3024 30.1227 43.8459 30.0884 43.1127C30.0574 42.4517 29.4586 41.8795 29.4586 41.2235C29.4586 40.9016 29.3537 40.6076 29.3537 40.2877C29.3537 39.8893 29.3537 39.4908 29.3537 39.0924C29.3537 38.7435 29.3537 38.3946 29.3537 38.0457C29.3537 37.8007 29.3691 37.5495 29.3479 37.3052C29.3293 37.0919 29.2299 36.8986 29.1963 36.6872C29.1272 36.2534 29.1438 35.8128 29.1438 35.3752C29.1438 34.8674 29.3413 34.4994 29.4528 34.0254C29.4915 33.8612 29.4658 33.6749 29.3712 33.5385C29.2692 33.3915 29.1664 33.2487 29.0738 33.0954C29.0067 32.9842 28.8813 32.9832 28.7764 32.9146C28.6184 32.8113 28.1364 32.4491 27.931 32.5881C27.7181 32.7321 27.9836 33.6525 28.0214 33.8242C28.0936 34.1532 28.1226 34.6507 28.275 34.9554C28.4683 35.3421 28.3566 35.9784 28.3566 36.4394C28.3566 37.0234 28.3566 37.6075 28.3566 38.1915" stroke="#01A8A0" stroke-linecap="round"/>
</svg>
