<svg width="60" height="60" viewBox="0 0 60 60" fill="none" xmlns="http://www.w3.org/2000/svg">
<rect width="60" height="60" rx="16" fill="#038ACE"/>
<path d="M11.7788 42H32.9412C33.9141 42 34.7059 41.327 34.7059 40.5V21.5C34.7059 21.477 34.6941 21.457 34.6906 21.435C34.6873 21.414 34.6822 21.3933 34.6753 21.373C34.6522 21.2878 34.6027 21.2094 34.5318 21.146L26.2976 14.147C26.2044 14.0721 26.0851 14.0247 25.9576 14.012C25.9329 14.01 25.9094 14 25.8824 14H11.7718C10.7953 14 10 14.673 10 15.5V40.5C10 41.327 10.7976 42 11.7788 42ZM26.4706 15.707L32.6976 21H27.0588C26.9028 21 26.7532 20.9473 26.6429 20.8536C26.5326 20.7598 26.4706 20.6326 26.4706 20.5V15.707ZM11.1765 15.5C11.1765 15.224 11.4435 15 11.7718 15H25.2941V20.5C25.2941 21.327 26.0859 22 27.0588 22H33.5294V40.5C33.5294 40.6326 33.4674 40.7598 33.3571 40.8536C33.2468 40.9473 33.0972 41 32.9412 41H11.7788C11.7006 41.0008 11.6231 40.9885 11.5505 40.9638C11.4779 40.9391 11.4117 40.9025 11.3558 40.856C11.2999 40.8096 11.2552 40.7543 11.2245 40.6932C11.1937 40.6321 11.1774 40.5665 11.1765 40.5V15.5Z" fill="white"/>
<path d="M15.2933 26H29.411C29.567 26 29.7166 25.9473 29.8269 25.8536C29.9372 25.7598 29.9992 25.6326 29.9992 25.5C29.9992 25.3674 29.9372 25.2402 29.8269 25.1464C29.7166 25.0527 29.567 25 29.411 25H15.2933C15.1373 25 14.9877 25.0527 14.8774 25.1464C14.7671 25.2402 14.7051 25.3674 14.7051 25.5C14.7051 25.6326 14.7671 25.7598 14.8774 25.8536C14.9877 25.9473 15.1373 26 15.2933 26Z" fill="white"/>
<path d="M15.2933 30H29.411C29.567 30 29.7166 29.9473 29.8269 29.8536C29.9372 29.7598 29.9992 29.6326 29.9992 29.5C29.9992 29.3674 29.9372 29.2402 29.8269 29.1464C29.7166 29.0527 29.567 29 29.411 29H15.2933C15.1373 29 14.9877 29.0527 14.8774 29.1464C14.7671 29.2402 14.7051 29.3674 14.7051 29.5C14.7051 29.6326 14.7671 29.7598 14.8774 29.8536C14.9877 29.9473 15.1373 30 15.2933 30Z" fill="white"/>
<path d="M15.2933 22H21.1757C21.3317 22 21.4813 21.9473 21.5916 21.8536C21.7019 21.7598 21.7639 21.6326 21.7639 21.5C21.7639 21.3674 21.7019 21.2402 21.5916 21.1464C21.4813 21.0527 21.3317 21 21.1757 21H15.2933C15.1373 21 14.9877 21.0527 14.8774 21.1464C14.7671 21.2402 14.7051 21.3674 14.7051 21.5C14.7051 21.6326 14.7671 21.7598 14.8774 21.8536C14.9877 21.9473 15.1373 22 15.2933 22Z" fill="white"/>
<path d="M15.2933 34H29.411C29.567 34 29.7166 33.9473 29.8269 33.8536C29.9372 33.7598 29.9992 33.6326 29.9992 33.5C29.9992 33.3674 29.9372 33.2402 29.8269 33.1464C29.7166 33.0527 29.567 33 29.411 33H15.2933C15.1373 33 14.9877 33.0527 14.8774 33.1464C14.7671 33.2402 14.7051 33.3674 14.7051 33.5C14.7051 33.6326 14.7671 33.7598 14.8774 33.8536C14.9877 33.9473 15.1373 34 15.2933 34Z" fill="white"/>
<path d="M15.2933 38H29.411C29.567 38 29.7166 37.9473 29.8269 37.8536C29.9372 37.7598 29.9992 37.6326 29.9992 37.5C29.9992 37.3674 29.9372 37.2402 29.8269 37.1464C29.7166 37.0527 29.567 37 29.411 37H15.2933C15.1373 37 14.9877 37.0527 14.8774 37.1464C14.7671 37.2402 14.7051 37.3674 14.7051 37.5C14.7051 37.6326 14.7671 37.7598 14.8774 37.8536C14.9877 37.9473 15.1373 38 15.2933 38Z" fill="white"/>
<path d="M35.2949 19H40.589V24.5C40.589 25.327 41.3808 26 42.3537 26H48.8243V44.5C48.8243 44.6326 48.7624 44.7598 48.652 44.8536C48.5417 44.9473 48.3921 45 48.2361 45H27.0737C26.9956 45.0008 26.918 44.9885 26.8454 44.9638C26.7728 44.9391 26.7067 44.9025 26.6507 44.856C26.5948 44.8096 26.5502 44.7543 26.5194 44.6932C26.4886 44.6321 26.4723 44.5665 26.4714 44.5V43.5C26.4714 43.3674 26.4094 43.2402 26.2991 43.1464C26.1888 43.0527 26.0392 43 25.8832 43C25.7271 43 25.5775 43.0527 25.4672 43.1464C25.3569 43.2402 25.2949 43.3674 25.2949 43.5V44.5C25.2949 45.327 26.0926 46 27.0737 46H48.2361C49.209 46 50.0008 45.327 50.0008 44.5V25.5C50.0008 25.477 49.989 25.457 49.9855 25.435C49.9822 25.414 49.9771 25.3933 49.9702 25.373C49.9472 25.2878 49.8976 25.2094 49.8267 25.146L41.5926 18.147C41.4999 18.0715 41.3803 18.0243 41.2526 18.013C41.2279 18.01 41.2043 18 41.1773 18H35.2949C35.1389 18 34.9893 18.0527 34.879 18.1464C34.7687 18.2402 34.7067 18.3674 34.7067 18.5C34.7067 18.6326 34.7687 18.7598 34.879 18.8536C34.9893 18.9473 35.1389 19 35.2949 19ZM42.3537 25C42.1977 25 42.0481 24.9473 41.9378 24.8536C41.8275 24.7598 41.7655 24.6326 41.7655 24.5V19.707L47.9926 25H42.3537Z" fill="white"/>
<path d="M37.6468 30H44.7057C44.8617 30 45.0113 29.9473 45.1216 29.8536C45.2319 29.7598 45.2939 29.6326 45.2939 29.5C45.2939 29.3674 45.2319 29.2402 45.1216 29.1464C45.0113 29.0527 44.8617 29 44.7057 29H37.6468C37.4908 29 37.3412 29.0527 37.2309 29.1464C37.1206 29.2402 37.0586 29.3674 37.0586 29.5C37.0586 29.6326 37.1206 29.7598 37.2309 29.8536C37.3412 29.9473 37.4908 30 37.6468 30Z" fill="white"/>
<path d="M37.6468 34H44.7057C44.8617 34 45.0113 33.9473 45.1216 33.8536C45.2319 33.7598 45.2939 33.6326 45.2939 33.5C45.2939 33.3674 45.2319 33.2402 45.1216 33.1464C45.0113 33.0527 44.8617 33 44.7057 33H37.6468C37.4908 33 37.3412 33.0527 37.2309 33.1464C37.1206 33.2402 37.0586 33.3674 37.0586 33.5C37.0586 33.6326 37.1206 33.7598 37.2309 33.8536C37.3412 33.9473 37.4908 34 37.6468 34Z" fill="white"/>
<path d="M37.6468 38H44.7057C44.8617 38 45.0113 37.9473 45.1216 37.8536C45.2319 37.7598 45.2939 37.6326 45.2939 37.5C45.2939 37.3674 45.2319 37.2402 45.1216 37.1464C45.0113 37.0527 44.8617 37 44.7057 37H37.6468C37.4908 37 37.3412 37.0527 37.2309 37.1464C37.1206 37.2402 37.0586 37.3674 37.0586 37.5C37.0586 37.6326 37.1206 37.7598 37.2309 37.8536C37.3412 37.9473 37.4908 38 37.6468 38Z" fill="white"/>
<path d="M37.6468 42H44.7057C44.8617 42 45.0113 41.9473 45.1216 41.8536C45.2319 41.7598 45.2939 41.6326 45.2939 41.5C45.2939 41.3674 45.2319 41.2402 45.1216 41.1464C45.0113 41.0527 44.8617 41 44.7057 41H37.6468C37.4908 41 37.3412 41.0527 37.2309 41.1464C37.1206 41.2402 37.0586 41.3674 37.0586 41.5C37.0586 41.6326 37.1206 41.7598 37.2309 41.8536C37.3412 41.9473 37.4908 42 37.6468 42Z" fill="white"/>
</svg>
