<svg width="26" height="26" viewBox="0 0 26 26" fill="none" xmlns="http://www.w3.org/2000/svg">
<path d="M4.33333 11.9167H10.8333C11.1207 11.9167 11.3962 11.8025 11.5994 11.5994C11.8025 11.3962 11.9167 11.1207 11.9167 10.8333V4.33333C11.9167 4.04602 11.8025 3.77047 11.5994 3.5673C11.3962 3.36414 11.1207 3.25 10.8333 3.25H4.33333C4.04602 3.25 3.77047 3.36414 3.5673 3.5673C3.36414 3.77047 3.25 4.04602 3.25 4.33333V10.8333C3.25 11.1207 3.36414 11.3962 3.5673 11.5994C3.77047 11.8025 4.04602 11.9167 4.33333 11.9167ZM15.1667 11.9167H21.6667C21.954 11.9167 22.2295 11.8025 22.4327 11.5994C22.6359 11.3962 22.75 11.1207 22.75 10.8333V4.33333C22.75 4.04602 22.6359 3.77047 22.4327 3.5673C22.2295 3.36414 21.954 3.25 21.6667 3.25H15.1667C14.8793 3.25 14.6038 3.36414 14.4006 3.5673C14.1975 3.77047 14.0833 4.04602 14.0833 4.33333V10.8333C14.0833 11.1207 14.1975 11.3962 14.4006 11.5994C14.6038 11.8025 14.8793 11.9167 15.1667 11.9167ZM4.33333 22.75H10.8333C11.1207 22.75 11.3962 22.6359 11.5994 22.4327C11.8025 22.2295 11.9167 21.954 11.9167 21.6667V15.1667C11.9167 14.8793 11.8025 14.6038 11.5994 14.4006C11.3962 14.1975 11.1207 14.0833 10.8333 14.0833H4.33333C4.04602 14.0833 3.77047 14.1975 3.5673 14.4006C3.36414 14.6038 3.25 14.8793 3.25 15.1667V21.6667C3.25 21.954 3.36414 22.2295 3.5673 22.4327C3.77047 22.6359 4.04602 22.75 4.33333 22.75ZM18.4167 22.75C20.8065 22.75 22.75 20.8065 22.75 18.4167C22.75 16.0268 20.8065 14.0833 18.4167 14.0833C16.0268 14.0833 14.0833 16.0268 14.0833 18.4167C14.0833 20.8065 16.0268 22.75 18.4167 22.75Z" fill="#838690"/>
</svg>
