<svg width="24" height="24" viewBox="0 0 26 26" fill="none" xmlns="http://www.w3.org/2000/svg">
<path d="M2.34477 21.1809C2.54627 21.4842 2.88535 21.6673 3.24935 21.6673H19.4993C19.9327 21.6673 20.3248 21.4095 20.4949 21.0108L23.7449 13.4275C23.8161 13.2627 23.8452 13.0829 23.8296 12.9041C23.8139 12.7253 23.754 12.5532 23.6552 12.4034C23.5564 12.2536 23.4219 12.1307 23.2637 12.0458C23.1056 11.9609 22.9288 11.9168 22.7493 11.9173H21.666V8.66732C21.666 7.4724 20.6943 6.50065 19.4993 6.50065H12.2898L9.52076 4.33398H4.33268C3.13777 4.33398 2.16602 5.30573 2.16602 6.50065V20.584H2.1736C2.17118 20.7954 2.23068 21.0029 2.34477 21.1809ZM19.4993 8.66732V11.9173H6.49935C6.06602 11.9173 5.67385 12.1751 5.50376 12.5738L4.33268 15.3071V8.66732H19.4993Z" fill="#838690"/>
</svg>
