<svg width="24" height="24" viewBox="0 0 26 26" fill="none" xmlns="http://www.w3.org/2000/svg">
<path d="M12.9993 6.5C13.2867 6.5 13.5622 6.61414 13.7654 6.8173C13.9685 7.02047 14.0827 7.29602 14.0827 7.58333V14.0833C14.0827 14.3707 13.9685 14.6462 13.7654 14.8494C13.5622 15.0525 13.2867 15.1667 12.9993 15.1667C12.712 15.1667 12.4365 15.0525 12.2333 14.8494C12.0302 14.6462 11.916 14.3707 11.916 14.0833V7.58333C11.916 7.29602 12.0302 7.02047 12.2333 6.8173C12.4365 6.61414 12.712 6.5 12.9993 6.5ZM12.9993 17.3333C12.712 17.3333 12.4365 17.4475 12.2333 17.6506C12.0302 17.8538 11.916 18.1293 11.916 18.4167C11.916 18.704 12.0302 18.9795 12.2333 19.1827C12.4365 19.3859 12.712 19.5 12.9993 19.5C13.2867 19.5 13.5622 19.3859 13.7654 19.1827C13.9685 18.9795 14.0827 18.704 14.0827 18.4167C14.0827 18.1293 13.9685 17.8538 13.7654 17.6506C13.5622 17.4475 13.2867 17.3333 12.9993 17.3333Z" fill="#838690"/>
<path fill-rule="evenodd" clip-rule="evenodd" d="M12.9993 2.16602C7.0161 2.16602 2.16602 7.0161 2.16602 12.9993C2.16602 18.9826 7.0161 23.8327 12.9993 23.8327C18.9826 23.8327 23.8327 18.9826 23.8327 12.9993C23.8327 7.0161 18.9826 2.16602 12.9993 2.16602ZM4.33268 12.9993C4.33268 15.2979 5.24578 17.5023 6.87109 19.1276C8.49641 20.7529 10.7008 21.666 12.9993 21.666C15.2979 21.666 17.5023 20.7529 19.1276 19.1276C20.7529 17.5023 21.666 15.2979 21.666 12.9993C21.666 10.7008 20.7529 8.49641 19.1276 6.87109C17.5023 5.24578 15.2979 4.33268 12.9993 4.33268C10.7008 4.33268 8.49641 5.24578 6.87109 6.87109C5.24578 8.49641 4.33268 10.7008 4.33268 12.9993Z" fill="#838690"/>
</svg>
