<svg width="26" height="26" viewBox="0 0 26 26" fill="none" xmlns="http://www.w3.org/2000/svg">
<path d="M12.9998 0C12.7585 0 12.527 0.0958747 12.3564 0.266533C12.1857 0.437191 12.0898 0.668653 12.0898 0.91V21.71C12.0898 21.9513 12.1857 22.1828 12.3564 22.3535C12.527 22.5241 12.7585 22.62 12.9998 22.62C13.2412 22.62 13.4727 22.5241 13.6433 22.3535C13.814 22.1828 13.9098 21.9513 13.9098 21.71V12.22H25.0898C25.3312 12.22 25.5627 12.1241 25.7333 11.9535C25.904 11.7828 25.9998 11.5513 25.9998 11.31V0.91C25.9998 0.668653 25.904 0.437191 25.7333 0.266533C25.5627 0.0958747 25.3312 0 25.0898 0H13.1298C13.1078 6.67287e-05 13.0858 0.000933967 13.0638 0.0026C13.0425 0.000983505 13.0212 0.000116302 12.9998 0V0ZM14.0398 1.82H24.1798V10.4H14.0398V1.82Z" fill="#838690"/>
<path d="M9.88026 19.9668C7.12582 20.3563 5.19922 21.2876 5.19922 22.6581C5.19922 24.5041 8.41828 26.0009 12.9992 26.0009C17.5802 26.0009 20.7992 24.5043 20.7992 22.6581C20.7992 21.2873 18.8726 20.3563 16.1184 19.9671L15.7368 20.6168C17.8129 20.9046 19.2392 21.5102 19.2392 22.2124C19.2392 23.197 16.4455 23.9952 12.9992 23.9952C9.55292 23.9952 6.75922 23.197 6.75922 22.2124C6.75896 21.5125 8.17622 20.9077 10.2586 20.6186C10.1327 20.4013 10.0064 20.1844 9.88026 19.9668Z" fill="#838690"/>
</svg>
