<svg width="20" height="20" viewBox="0 0 20 20" fill="none" xmlns="http://www.w3.org/2000/svg">
<path d="M4.54492 11.4277H11.8176V12.8563H4.54492V11.4277Z" fill="#6A6A6A"/>
<path d="M4.54492 7.85742H15.454V9.28599H4.54492V7.85742Z" fill="#6A6A6A"/>
<path d="M4.54492 15H9.09038V16.4286H4.54492V15Z" fill="#6A6A6A"/>
<path d="M18.1818 2.14286H15.4545V1.42857C15.4545 1.04969 15.263 0.686328 14.922 0.418419C14.581 0.15051 14.1186 0 13.6364 0H6.36364C5.88142 0 5.41896 0.15051 5.07799 0.418419C4.73701 0.686328 4.54545 1.04969 4.54545 1.42857V2.14286H1.81818C1.33597 2.14286 0.873508 2.29337 0.532533 2.56128C0.191558 2.82919 0 3.19255 0 3.57143V18.5714C0 18.9503 0.191558 19.3137 0.532533 19.5816C0.873508 19.8495 1.33597 20 1.81818 20H18.1818C18.664 20 19.1265 19.8495 19.4675 19.5816C19.8084 19.3137 20 18.9503 20 18.5714V3.57143C20 3.19255 19.8084 2.82919 19.4675 2.56128C19.1265 2.29337 18.664 2.14286 18.1818 2.14286V2.14286ZM6.36364 1.42857H13.6364V4.28571H6.36364V1.42857ZM18.1818 18.5714H1.81818V3.57143H4.54545V5.71429H15.4545V3.57143H18.1818V18.5714Z" fill="#6A6A6A"/>
</svg>
