<svg width="20" height="20" viewBox="0 0 20 20" fill="none" xmlns="http://www.w3.org/2000/svg">
<path d="M19.9991 15.2726L18.4606 14.5583V12.8569C18.4588 11.845 18.0717 10.8663 17.3679 10.0938C16.6641 9.32135 15.6888 8.80478 14.6145 8.63544V7.14258H13.076V8.63544C12.0017 8.80478 11.0264 9.32135 10.3226 10.0938C9.61879 10.8663 9.23174 11.845 9.22987 12.8569V14.5583L7.69141 15.2726V18.5711H12.3068V19.9997H15.3837V18.5711H19.9991V15.2726ZM18.4606 17.1426H9.22987V16.1554L10.7683 15.4411V12.8569C10.7683 12.0991 11.0925 11.3724 11.6695 10.8366C12.2466 10.3007 13.0292 9.99972 13.8453 9.99972C14.6613 9.99972 15.4439 10.3007 16.021 10.8366C16.598 11.3724 16.9222 12.0991 16.9222 12.8569V15.4411L18.4606 16.1554V17.1426Z" fill="#6A6A6A"/>
<path d="M18.4615 2.85714C18.4615 2.47826 18.2995 2.1149 18.0109 1.84699C17.7224 1.57908 17.3311 1.42857 16.9231 1.42857H13.8462V0H12.3077V1.42857H6.15385V0H4.61538V1.42857H1.53846C1.13044 1.42857 0.739122 1.57908 0.450605 1.84699C0.162087 2.1149 0 2.47826 0 2.85714V17.1429C0 17.5217 0.162087 17.8851 0.450605 18.153C0.739122 18.4209 1.13044 18.5714 1.53846 18.5714H4.61538V17.1429H1.53846V2.85714H4.61538V4.28571H6.15385V2.85714H12.3077V4.28571H13.8462V2.85714H16.9231V7.14286H18.4615V2.85714Z" fill="#6A6A6A"/>
</svg>
