<svg width="24" height="24" viewBox="0 0 24 24" fill="none" xmlns="http://www.w3.org/2000/svg">
<path d="M20.496 5.627C20.9357 5.78152 21.3166 6.06877 21.586 6.44907C21.8554 6.82937 22.0001 7.28394 22 7.75V17.75C22 18.8772 21.5522 19.9582 20.7552 20.7552C19.9582 21.5522 18.8772 22 17.75 22H7.75C7.28394 22.0001 6.82937 21.8554 6.44907 21.586C6.06877 21.3166 5.78152 20.9357 5.627 20.496L7.724 20.5H17.75C18.4793 20.5 19.1788 20.2103 19.6945 19.6945C20.2103 19.1788 20.5 18.4793 20.5 17.75V7.75L20.496 7.699V5.627ZM17.246 2C17.8427 2 18.415 2.23705 18.837 2.65901C19.2589 3.08097 19.496 3.65326 19.496 4.25V17.247C19.496 17.8437 19.2589 18.416 18.837 18.838C18.415 19.2599 17.8427 19.497 17.246 19.497H4.25C3.65326 19.497 3.08097 19.2599 2.65901 18.838C2.23705 18.416 2 17.8437 2 17.247V4.25C2 3.65326 2.23705 3.08097 2.65901 2.65901C3.08097 2.23705 3.65326 2 4.25 2H17.247H17.246ZM10.75 6.75C10.5688 6.75001 10.3937 6.81564 10.2571 6.93477C10.1205 7.05389 10.0316 7.21845 10.007 7.398L10 7.5V10H7.5C7.30998 10.0001 7.12706 10.0722 6.98821 10.202C6.84936 10.3317 6.76493 10.5093 6.75197 10.6989C6.73902 10.8885 6.79852 11.0759 6.91843 11.2233C7.03835 11.3707 7.20975 11.4671 7.398 11.493L7.5 11.5H10V14C10.0001 14.19 10.0722 14.3729 10.202 14.5118C10.3317 14.6506 10.5093 14.7351 10.6989 14.748C10.8885 14.761 11.0759 14.7015 11.2233 14.5816C11.3707 14.4617 11.4671 14.2902 11.493 14.102L11.5 14V11.5H14C14.19 11.4999 14.3729 11.4278 14.5118 11.298C14.6506 11.1683 14.7351 10.9907 14.748 10.8011C14.761 10.6115 14.7015 10.4241 14.5816 10.2767C14.4617 10.1293 14.2902 10.0329 14.102 10.007L14 10H11.5V7.5C11.5 7.30109 11.421 7.11032 11.2803 6.96967C11.1397 6.82902 10.9489 6.75 10.75 6.75Z" fill="white"/>
</svg>
